HIERARCHY
ROOT SpineBase
{
  OFFSET 0.000000 0.000000 0.000000
  CHANNELS 6 Xposition Yposition Zposition Zrotation Xrotation Yrotation
  JOINT SpineMid
  {
    OFFSET 0.000000 29.260220 0.000000
    CHANNELS 3 Zrotation Xrotation Yrotation
    JOINT SpineShoulder
    {
      OFFSET -0.051605 21.844474 -0.679483
      CHANNELS 3 Zrotation Xrotation Yrotation
      JOINT Neck
      {
        OFFSET -0.001359 7.252048 -0.488664
        CHANNELS 3 Zrotation Xrotation Yrotation
        JOINT Head
        {
          OFFSET -4.190900 13.509021 -1.286422
          CHANNELS 3 Zrotation Xrotation Yrotation
          End Site
          {
            OFFSET 0 0 0
          }
        }
      }
      JOINT ShoulderLeft
      {
        OFFSET -16.254211 -4.625029 5.073904
        CHANNELS 3 Zrotation Xrotation Yrotation
        JOINT ElbowLeft
        {
          OFFSET -1.662016 -26.161862 0.208565
          CHANNELS 3 Zrotation Xrotation Yrotation
          JOINT WristLeft
          {
            OFFSET 1.727440 -17.080339 -10.405306
            CHANNELS 3 Zrotation Xrotation Yrotation
            JOINT HandLeft
            {
              OFFSET 0.699093 -4.689820 -0.615406
              CHANNELS 3 Zrotation Xrotation Yrotation
              JOINT HandTipLeft
              {
                OFFSET -0.584960 -5.274227 -1.797068
                CHANNELS 3 Zrotation Xrotation Yrotation
                End Site
                {
                  OFFSET 0 0 0
                }
              }
              JOINT ThumbLeft
              {
                OFFSET -2.213436 0.085238 -3.946302
                CHANNELS 3 Zrotation Xrotation Yrotation
                End Site
                {
                  OFFSET 0 0 0
                }
              }
            }
          }
        }
      }
      JOINT ShoulderRight
      {
        OFFSET 14.566028 -2.324077 -6.573233
        CHANNELS 3 Zrotation Xrotation Yrotation
        JOINT ElbowRight
        {
          OFFSET 7.737444 -22.976971 1.607746
          CHANNELS 3 Zrotation Xrotation Yrotation
          JOINT WristRight
          {
            OFFSET -3.146545 -17.999715 -7.259094
            CHANNELS 3 Zrotation Xrotation Yrotation
            JOINT HandRight
            {
              OFFSET -3.602661 -6.718707 -2.731585
              CHANNELS 3 Zrotation Xrotation Yrotation
              JOINT HandTipRight
              {
                OFFSET -1.454894 -6.313256 -3.029786
                CHANNELS 3 Zrotation Xrotation Yrotation
                End Site
                {
                  OFFSET 0 0 0
                }
              }
              JOINT ThumbRight
              {
                OFFSET 1.970527 -2.833003 -2.571022
                CHANNELS 3 Zrotation Xrotation Yrotation
                End Site
                {
                  OFFSET 0 0 0
                }
              }
            }
          }
        }
      }
    }
  }
  JOINT HipLeft
  {
    OFFSET -6.162398 0.578056 -1.439125
    CHANNELS 3 Zrotation Xrotation Yrotation
    JOINT KneeLeft
    {
      OFFSET 4.784944 -30.540846 6.123324
      CHANNELS 3 Zrotation Xrotation Yrotation
      JOINT AnkleLeft
      {
        OFFSET 4.556542 -29.628363 4.022099
        CHANNELS 3 Zrotation Xrotation Yrotation
        JOINT FootLeft
        {
          OFFSET 4.402442 -6.733799 -5.791998
          CHANNELS 3 Zrotation Xrotation Yrotation
          End Site
          {
            OFFSET 0 0 0
          }
        }
      }
    }
  }
  JOINT HipRight
  {
    OFFSET 6.891970 1.261145 -5.197287
    CHANNELS 3 Zrotation Xrotation Yrotation
    JOINT KneeRight
    {
      OFFSET 6.519142 -27.026032 2.829880
      CHANNELS 3 Zrotation Xrotation Yrotation
      JOINT AnkleRight
      {
        OFFSET 2.922313 -34.240432 6.954644
        CHANNELS 3 Zrotation Xrotation Yrotation
        JOINT FootRight
        {
          OFFSET -4.983284 -6.623681 -3.732845
          CHANNELS 3 Zrotation Xrotation Yrotation
          End Site
          {
            OFFSET 0 0 0
          }
        }
      }
    }
  }
}
MOTION
Frames: 15
Frame Time: 0.033333
-41.205350 53.925876 351.471856 -11.653195 -19.958412 22.437485 -0.881396 0.780627 -24.688317 1.031760 -0.519332 -0.563024 3.516687 28.626738 3.984068 0.000000 0.000000 0.000000 -17.917212 25.967703 9.781730 44.610333 -36.421022 -4.613993 0.084510 2.084037 7.106175 15.693616 19.025606 -13.340895 0.000000 0.000000 0.000000 0.000000 0.000000 0.000000 -0.124129 -3.451893 -8.661596 23.704417 23.795809 -4.699091 24.318585 0.936025 -12.746298 11.576615 -1.049398 -7.373657 0.000000 0.000000 0.000000 0.000000 0.000000 0.000000 32.095511 34.543986 -28.138872 13.751924 -22.562305 4.036333 -117.665599 61.816956 146.013528 0.000000 0.000000 0.000000 32.854444 32.490881 -26.393365 -3.047062 -25.171245 -6.089451 -13.535562 76.575020 -31.837376 0.000000 0.000000 0.000000
-40.608038 53.272361 351.950111 -8.572210 -20.045142 24.557950 0.115660 -0.169985 -26.414376 0.600052 -0.775254 -0.362025 -9.228332 25.766194 6.045994 0.000000 0.000000 0.000000 -22.390462 23.668415 10.182631 44.970704 -34.971919 -6.579919 1.302531 8.974395 6.392276 8.392830 10.229232 -6.831098 0.000000 0.000000 0.000000 0.000000 0.000000 0.000000 -5.411326 -11.382021 -12.116422 26.499698 38.738742 -8.919270 33.125041 -4.253541 -12.266100 8.358821 -2.661918 -4.606882 0.000000 0.000000 0.000000 0.000000 0.000000 0.000000 30.352805 36.150231 -30.090117 14.855859 -22.469120 4.617011 -137.531579 74.874391 165.767405 0.000000 0.000000 0.000000 31.436359 34.648386 -28.237543 -2.345999 -25.508762 -6.154229 5.903966 55.147042 -40.375019 0.000000 0.000000 0.000000
-39.772922 52.668081 352.419118 -4.736017 -19.954450 24.905757 0.863358 -0.803169 -26.100127 0.319051 -1.081742 -0.142141 -20.788127 22.587028 7.352126 0.000000 0.000000 0.000000 -25.627904 21.267514 9.926857 41.337972 -33.345868 -7.803973 6.364423 14.290462 2.689086 1.129274 5.819434 -2.908583 0.000000 0.000000 0.000000 0.000000 0.000000 0.000000 -7.982875 -17.817795 -14.652575 22.323820 51.860265 -9.218809 43.704263 2.444618 -27.312205 10.139226 -11.372210 15.426374 0.000000 0.000000 0.000000 0.000000 0.000000 0.000000 26.220496 38.161381 -29.739239 15.070094 -21.409024 4.670452 -154.863977 78.974515 -176.276891 0.000000 0.000000 0.000000 25.402802 40.475000 -27.122426 2.140582 -26.689702 -5.062639 13.900397 37.306606 -38.833948 0.000000 0.000000 0.000000
-39.196236 52.207243 352.550373 -1.830828 -19.070979 25.242687 2.154369 -1.079586 -25.959131 -0.613138 -1.591838 0.128879 -27.988695 17.737063 6.352265 0.000000 0.000000 0.000000 -25.935981 19.631192 8.817619 36.016288 -33.081188 -7.748255 14.623708 19.859201 -3.289137 -6.636871 -3.215799 1.358622 0.000000 0.000000 0.000000 0.000000 0.000000 0.000000 -4.945339 -22.916245 -15.605716 5.710036 60.887142 -0.021024 50.192867 19.484317 -51.971216 31.518607 -16.023120 47.444596 0.000000 0.000000 0.000000 0.000000 0.000000 0.000000 23.208632 38.216514 -29.199117 13.275746 -20.412071 3.794519 -173.375595 80.855070 -156.399537 0.000000 0.000000 0.000000 16.494297 42.149654 -24.572599 8.917872 -23.822542 -2.043490 9.836891 26.224191 -30.461887 0.000000 0.000000 0.000000
-38.843769 51.867999 352.901852 -0.330319 -18.963488 22.679361 2.454542 -1.670359 -23.150361 -1.235873 -1.653896 0.286542 -29.724340 17.009775 6.182538 0.000000 0.000000 0.000000 -23.862209 18.843175 7.833673 29.135657 -32.882699 -7.450706 23.069521 21.530142 -9.670392 -12.497496 -7.717910 4.019287 0.000000 0.000000 0.000000 0.000000 0.000000 0.000000 2.181386 -21.914517 -14.155671 -19.542249 60.990520 16.970557 45.468460 32.475355 -56.227490 29.658474 -14.725436 43.650694 0.000000 0.000000 0.000000 0.000000 0.000000 0.000000 19.093064 38.906347 -25.556097 14.128454 -18.597011 4.174048 -130.520926 74.379065 159.777813 0.000000 0.000000 0.000000 13.138560 43.463559 -20.920211 8.609788 -21.948008 -2.038696 13.073011 17.115527 -28.218380 0.000000 0.000000 0.000000
-38.675241 51.606142 353.336646 0.317179 -19.514079 23.486909 1.740981 -1.918583 -23.770814 -0.989064 -1.291873 0.273818 -28.532344 18.399001 6.552098 0.000000 0.000000 0.000000 -20.660000 17.672149 6.732200 21.467887 -31.452076 -6.697217 32.235819 20.342607 -16.348064 -19.477564 -11.204409 6.907042 0.000000 0.000000 0.000000 0.000000 0.000000 0.000000 8.936542 -14.201774 -11.626473 -31.237918 51.817491 21.691558 36.329542 33.856042 -45.550042 -3.586038 -34.152456 27.953070 0.000000 0.000000 0.000000 0.000000 0.000000 0.000000 19.990494 39.581999 -26.771938 12.649305 -18.618846 3.527727 -142.937461 81.099861 172.755326 0.000000 0.000000 0.000000 14.835800 40.932548 -22.848139 6.455711 -18.341925 -2.309121 8.744693 12.819835 -22.295985 0.000000 0.000000 0.000000
-39.171341 51.476621 353.769618 -1.147690 -20.798959 25.804220 0.872053 -2.055857 -26.356545 -1.365733 -0.972764 0.239841 -18.659839 23.755382 6.477306 0.000000 0.000000 0.000000 -18.134565 15.930384 6.553115 19.097151 -27.284750 -6.434462 34.796183 13.802274 -17.351905 -21.684715 -6.815997 8.249884 0.000000 0.000000 0.000000 0.000000 0.000000 0.000000 16.100500 -2.111775 -9.945484 -31.152820 36.240884 16.303326 26.437624 32.645833 -34.764174 -32.362216 -30.341846 11.644900 0.000000 0.000000 0.000000 0.000000 0.000000 0.000000 26.409265 39.431357 -31.123122 9.789127 -19.536622 2.328159 -150.889342 83.921574 -178.339993 0.000000 0.000000 0.000000 22.010203 35.804192 -27.925442 2.442422 -14.684462 -2.841226 -1.525107 11.250384 -14.629657 0.000000 0.000000 0.000000
-39.036068 52.101833 354.390792 -2.248534 -23.019296 35.765627 -0.911089 -1.953022 -36.477676 -0.060112 0.098019 0.005097 -5.824775 32.227857 5.097637 0.000000 0.000000 0.000000 -16.996718 13.473037 6.530307 17.720647 -21.012415 -6.428329 32.629171 7.569791 -15.352899 -19.393304 1.771840 7.080198 0.000000 0.000000 0.000000 0.000000 0.000000 0.000000 13.469318 17.022824 -6.181464 -20.505889 17.815307 5.662233 19.231360 28.630708 -26.392163 -32.222755 -26.604983 11.746167 0.000000 0.000000 0.000000 0.000000 0.000000 0.000000 38.717226 39.071328 -44.807036 9.764095 -23.439974 2.311392 -172.844948 80.542620 -153.467370 0.000000 0.000000 0.000000 28.720972 26.988048 -39.484529 0.949414 -7.865629 -2.092471 -10.401093 4.435300 -6.545799 0.000000 0.000000 0.000000
-38.235046 51.470436 355.174412 -1.340243 -25.095021 38.493791 -2.242029 -0.757923 -38.690417 1.195752 0.169395 -0.235263 4.064069 40.539501 2.737677 0.000000 0.000000 0.000000 -20.177786 5.939454 7.117376 18.472363 -12.057277 -7.024041 34.769894 2.912414 -16.919059 -20.551161 10.626541 6.168041 0.000000 0.000000 0.000000 0.000000 0.000000 0.000000 6.111374 29.428985 -1.316063 -11.487128 4.561529 0.634968 12.848950 24.236589 -19.640058 -25.186174 -13.413956 12.352486 0.000000 0.000000 0.000000 0.000000 0.000000 0.000000 43.394188 41.833587 -50.141699 10.573516 -25.259653 2.666650 -153.860406 79.069693 -171.574325 0.000000 0.000000 0.000000 30.410083 28.153274 -42.907933 2.651871 -7.504277 -1.503340 -19.819971 -2.412144 0.898994 0.000000 0.000000 0.000000
-37.581319 50.256944 355.535479 -0.391725 -26.302719 40.770576 -2.699938 0.035767 -40.528714 2.395587 -0.074090 -0.458439 13.104412 47.774474 -1.022055 0.000000 0.000000 0.000000 -20.184250 0.570817 6.730383 17.808999 -2.599944 -7.401456 32.115318 -1.407344 -14.609979 -17.403227 17.524105 3.916320 0.000000 0.000000 0.000000 0.000000 0.000000 0.000000 -2.369388 36.042764 3.849246 -4.029403 -6.311755 -1.168787 9.582338 22.292860 -15.956041 -14.448943 -2.456072 9.989652 0.000000 0.000000 0.000000 0.000000 0.000000 0.000000 46.582463 44.255955 -54.538425 12.351305 -26.335171 3.557399 -136.163881 86.145428 168.970788 0.000000 0.000000 0.000000 32.806130 29.794878 -45.823467 2.557147 -11.679745 -1.945286 -21.580047 -7.810729 7.232041 0.000000 0.000000 0.000000
-36.949622 48.582607 355.611773 0.823672 -26.830893 40.542139 -2.689619 0.648732 -39.855426 3.102879 -0.493303 -0.555441 20.213547 52.838807 -4.967135 0.000000 0.000000 0.000000 -20.933402 -2.457889 6.647860 20.179113 3.737688 -9.818753 29.480601 -2.116410 -11.293484 -15.418364 19.082710 1.990554 0.000000 0.000000 0.000000 0.000000 0.000000 0.000000 -10.431402 36.520836 7.475831 6.314886 -12.208304 -1.136855 6.112383 20.287206 -12.759943 -4.407023 8.912308 3.656541 0.000000 0.000000 0.000000 0.000000 0.000000 0.000000 45.435532 47.546120 -55.226404 15.564082 -25.744231 5.289934 -32.954649 79.321910 60.771059 0.000000 0.000000 0.000000 34.341591 33.367596 -46.341456 4.057484 -16.700875 -1.793918 -22.700863 -17.284687 14.902459 0.000000 0.000000 0.000000
-36.485780 46.538683 355.465606 2.024317 -26.661786 36.839209 -2.326796 0.971607 -35.834745 3.444983 -1.018425 -0.533812 23.214589 55.822798 -6.971693 0.000000 0.000000 0.000000 -22.539468 -3.132410 6.799899 26.066481 7.017190 -14.775340 22.039211 0.098644 -5.078089 -11.591889 15.464785 0.451972 0.000000 0.000000 0.000000 0.000000 0.000000 0.000000 -14.160922 31.820359 6.902501 12.193833 -10.589410 -0.089170 4.806898 18.416426 -10.912324 -0.155886 15.062416 -1.305943 0.000000 0.000000 0.000000 0.000000 0.000000 0.000000 38.162534 51.107330 -49.708932 18.529111 -23.115054 6.813302 -42.689035 60.761181 62.928952 0.000000 0.000000 0.000000 35.794693 39.917959 -44.014783 2.455983 -24.511377 -3.483203 -19.119222 -11.822721 13.254171 0.000000 0.000000 0.000000
-36.149547 44.645289 355.182996 3.842835 -26.142761 30.199642 -1.572365 1.378523 -28.842620 3.335406 -1.389504 -0.362683 19.906455 56.895652 -5.249435 0.000000 0.000000 0.000000 -22.901368 -1.732041 6.595719 29.731526 8.739397 -18.087210 17.532312 -0.347827 -0.006764 -9.173732 12.255324 -1.080391 0.000000 0.000000 0.000000 0.000000 0.000000 0.000000 -9.626905 22.977150 1.164126 5.942037 -1.349059 1.722782 11.733098 19.159605 -15.968369 2.779822 17.327202 -3.772969 0.000000 0.000000 0.000000 0.000000 0.000000 0.000000 24.181165 53.496412 -37.270659 20.597095 -18.717818 7.634009 -48.352816 17.859096 46.583066 0.000000 0.000000 0.000000 31.506941 50.612341 -37.322949 5.312813 -31.843595 -3.257864 -13.997808 1.172906 2.933775 0.000000 0.000000 0.000000
-36.260016 43.468825 354.793774 4.656961 -25.216479 19.680542 -0.485974 1.644294 -18.417084 2.677956 -1.667793 -0.119869 14.745367 54.964685 -2.227656 0.000000 0.000000 0.000000 -21.228493 2.239882 5.992656 31.988434 7.764588 -20.070746 14.203957 -0.692277 4.468889 -8.637326 6.138429 -1.057731 0.000000 0.000000 0.000000 0.000000 0.000000 0.000000 -4.795975 8.453477 -5.037847 -2.998840 16.828477 6.052323 18.964968 24.944109 -25.183135 6.345090 12.859573 0.402818 0.000000 0.000000 0.000000 0.000000 0.000000 0.000000 6.874703 49.993837 -18.660314 20.835761 -11.890838 7.147778 -55.174507 -10.842017 27.119527 0.000000 0.000000 0.000000 17.956416 58.395331 -20.761231 6.881382 -35.998899 -2.886793 -10.297907 10.139410 -5.255039 0.000000 0.000000 0.000000
-36.388166 42.860692 354.621580 4.418872 -24.754492 6.015541 -1.004744 1.437104 -4.797125 1.658841 -1.551328 -0.007515 14.829558 54.843344 -1.443544 0.000000 0.000000 0.000000 -19.144760 7.062511 5.748407 35.351356 5.331789 -21.176864 9.937007 -2.022961 8.296583 -9.571871 4.099577 -0.352623 0.000000 0.000000 0.000000 0.000000 0.000000 0.000000 -0.779102 -0.484054 -8.330183 -14.009872 28.644004 13.560569 27.269574 33.459310 -35.498935 8.050964 9.278857 7.475164 0.000000 0.000000 0.000000 0.000000 0.000000 0.000000 -7.295218 41.654225 -0.114378 21.507185 -3.451790 6.254972 -59.476262 -20.136604 16.111426 0.000000 0.000000 0.000000 -1.249597 63.679703 4.569187 0.411109 -38.469338 -7.416489 -2.939428 15.661827 -12.724169 0.000000 0.000000 0.000000
